<?xml version="1.0" encoding="UTF-8"?>
<!DOCTYPE svg PUBLIC "-//W3C//DTD SVG 1.1//EN" "http://www.w3.org/Graphics/SVG/1.1/DTD/svg11.dtd">
<!-- Creator: CorelDRAW X8 -->
<svg xmlns="http://www.w3.org/2000/svg" xml:space="preserve" width="500px" height="500px" version="1.1" style="shape-rendering:geometricPrecision; text-rendering:geometricPrecision; image-rendering:optimizeQuality; fill-rule:evenodd; clip-rule:evenodd"
viewBox="0 0 500 500"
 xmlns:xlink="http://www.w3.org/1999/xlink">
 <defs>
  <style type="text/css">
   <![CDATA[
    .str0 {stroke:white;stroke-width:25.0005}
    .fil0 {fill:none}
    .fil2 {fill:white}
    .fil1 {fill:white;fill-rule:nonzero}
   ]]>
  </style>
 </defs>
 <g id="Слой_x0020_1">
  <metadata id="CorelCorpID_0Corel-Layer"/>
  <circle class="fil0 str0" cx="250" cy="250" r="225"/>
  <path class="fil1" d="M187 186l37 -36 5 5 -5 5c7,-1 13,1 18,6 2,2 3,5 4,7 2,3 2,6 2,8 -1,2 -2,4 -3,6 -1,2 -3,4 -6,7l-22 22 -7 -6 23 -22c2,-3 4,-5 5,-7 0,-1 1,-3 0,-5 0,-2 -1,-4 -3,-6 -3,-2 -6,-4 -9,-4 -4,0 -8,2 -13,7l-20 20 -6 -7zm76 53l6 7c-5,3 -10,4 -15,3 -5,0 -9,-3 -13,-7 -6,-5 -8,-11 -8,-18 0,-6 3,-12 9,-18 6,-7 13,-10 19,-10 7,0 13,2 18,7 5,5 7,11 7,17 -1,7 -4,13 -10,19 0,0 -1,1 -2,2l-27 -28c-4,5 -6,9 -6,13 0,4 2,8 5,11 2,2 5,3 7,4 3,0 6,0 10,-2zm-10 -30l20 20c3,-3 4,-6 5,-9 0,-5 -1,-8 -4,-12 -3,-2 -7,-4 -10,-4 -4,0 -8,2 -11,5zm8 52l33 -6 5 -30 7 8 -2 14c-1,3 -1,5 -2,7 3,-1 5,-1 7,-1l15 -3 7 8 -30 5 -6 32 -7 -7 4 -19 1 -5 -24 4 -8 -7zm59 48l-5 6c-2,-2 -4,-3 -5,-4 -2,-3 -4,-5 -4,-7 -1,-2 -1,-3 0,-5 1,-2 3,-4 6,-8l22 -21 -5 -5 5 -5 4 5 10 -9 9 2 -12 13 6 6 -5 5 -6 -6 -22 21c-1,2 -3,3 -3,4 0,1 0,2 0,2 0,1 1,2 2,3 0,1 1,2 3,3zm-213 -54c-4,0 -8,-1 -11,-2 -3,-2 -6,-4 -8,-6 -4,-4 -6,-8 -6,-12 -1,-5 1,-8 4,-11 2,-2 4,-3 6,-4 2,-1 5,-1 7,0 2,0 4,1 6,2 2,1 4,3 7,5 5,4 10,7 13,9 1,-1 1,-1 2,-2 2,-2 3,-5 3,-7 0,-3 -2,-6 -5,-9 -3,-3 -5,-5 -8,-5 -2,0 -5,0 -8,2l-6 -7c4,-2 7,-3 9,-3 3,0 6,0 10,2 3,1 6,4 9,7 3,3 6,6 7,9 1,2 2,5 1,7 0,2 -1,4 -2,6 -1,1 -3,3 -5,6l-9 8c-5,6 -9,10 -10,11 -1,2 -2,4 -3,6l-7 -6c1,-2 2,-4 4,-6zm13 -14c-3,-2 -7,-4 -12,-8 -3,-2 -6,-4 -7,-4 -2,-1 -3,-1 -4,-1 -2,1 -3,1 -4,2 -2,2 -3,4 -3,6 1,3 2,5 4,7 3,3 5,4 8,5 3,1 6,1 9,0 2,-1 4,-2 7,-5l2 -2zm-3 34l51 -51 6 7 -50 50 -7 -6zm22 21l-6 -5 51 -51 6 6 -18 18c6,0 11,2 15,6 2,2 4,4 5,7 1,3 1,6 1,9 0,3 -1,6 -3,9 -1,3 -4,6 -6,9 -6,6 -13,9 -19,10 -7,0 -12,-2 -17,-7 -4,-4 -6,-9 -4,-15l-5 4zm19 -18c-5,4 -7,8 -8,11 -1,5 0,10 3,13 3,3 6,4 10,3 5,0 9,-2 14,-7 5,-5 7,-9 8,-14 0,-4 -1,-7 -4,-10 -2,-3 -6,-4 -10,-3 -5,0 -9,2 -13,7zm38 76l6 -5c-7,1 -13,-1 -18,-6 -2,-2 -4,-4 -5,-7 -1,-3 -1,-5 -1,-7 1,-2 1,-5 3,-7 1,-1 3,-3 5,-6l23 -23 6 7 -20 20c-3,3 -5,5 -6,7 -1,2 -2,4 -2,6 1,2 2,4 4,6 2,2 4,3 6,4 3,1 5,1 8,0 2,-1 5,-3 8,-7l20 -19 6 6 -37 37 -6 -6zm16 16l36 -37 6 6 -5 5c3,-1 6,-1 9,0 3,1 5,2 8,5 3,3 4,5 5,8 0,3 0,6 -1,9 7,-2 13,0 18,5 3,3 5,7 5,11 0,4 -2,8 -6,12l-26 25 -6 -6 23 -23c3,-2 4,-4 5,-6 1,-1 1,-3 1,-5 -1,-1 -2,-3 -3,-4 -3,-3 -6,-4 -9,-4 -4,0 -7,2 -11,5l-21 22 -7 -7 24 -23c3,-3 5,-6 5,-8 0,-3 -1,-5 -3,-7 -2,-2 -4,-3 -6,-4 -2,0 -5,0 -7,1 -3,1 -6,3 -9,7l-19 19 -6 -6z"/>
 </g>
 <g id="Слой_x0020_1_0">
  <metadata id="CorelCorpID_1Corel-Layer"/>
  <polygon class="fil2" points="379,123 165,64 145,87 331,172 411,363 433,340 "/>
 </g>
</svg>
