<?xml version="1.0" encoding="UTF-8"?>
<!DOCTYPE svg PUBLIC "-//W3C//DTD SVG 1.1//EN" "http://www.w3.org/Graphics/SVG/1.1/DTD/svg11.dtd">
<!-- Creator: CorelDRAW X8 -->
<svg xmlns="http://www.w3.org/2000/svg" xml:space="preserve" width="500px" height="500px" version="1.1" style="shape-rendering:geometricPrecision; text-rendering:geometricPrecision; image-rendering:optimizeQuality; fill-rule:evenodd; clip-rule:evenodd"
viewBox="0 0 500 500"
 xmlns:xlink="http://www.w3.org/1999/xlink">
 <defs>
  <style type="text/css">
   <![CDATA[
    .str0 {stroke:white;stroke-width:25.0005}
    .fil0 {fill:none}
    .fil2 {fill:white}
    .fil1 {fill:white;fill-rule:nonzero}
   ]]>
  </style>
 </defs>
 <g id="Слой_x0020_1">
  <metadata id="CorelCorpID_0Corel-Layer"/>
  <circle class="fil0 str0" cx="250" cy="250" r="225"/>
  <path class="fil1" d="M424 331l-51 51 -6 -6 5 -4c-3,0 -6,0 -8,-1 -3,-1 -6,-2 -8,-5 -3,-3 -5,-6 -6,-10 -1,-4 0,-8 2,-12 1,-5 4,-8 7,-12 4,-4 8,-6 13,-8 4,-2 8,-2 12,-1 4,1 8,3 11,6 2,2 3,4 4,7 1,2 1,5 1,7l18 -18 6 6zm-38 27c5,-5 7,-9 8,-13 0,-5 -1,-8 -4,-11 -3,-3 -6,-4 -10,-3 -5,0 -9,3 -14,7 -5,5 -7,10 -8,14 0,4 1,7 3,10 3,3 7,4 11,3 5,0 9,-3 14,-7zm-15 -52l-37 37 -6 -6 6 -6c-4,2 -7,2 -9,2 -2,-1 -4,-2 -5,-3 -3,-2 -4,-5 -5,-9l8 -3c1,2 2,4 3,6 2,1 3,2 5,2 2,0 4,0 6,-1 3,-1 6,-3 8,-6l19 -19 7 6zm-61 -37l-5 -7c4,-3 9,-4 14,-3 5,0 9,3 14,7 5,6 7,11 7,18 0,6 -3,12 -9,18 -6,7 -12,10 -19,10 -7,0 -12,-2 -17,-7 -5,-5 -8,-11 -7,-17 0,-7 3,-13 9,-19 0,0 1,-1 2,-2l27 28c4,-4 6,-9 6,-13 0,-4 -2,-8 -5,-11 -2,-2 -4,-3 -7,-4 -3,0 -6,0 -10,2zm11 30l-21 -20c-3,3 -4,6 -4,9 -1,5 0,8 4,12 2,2 6,4 10,4 3,0 7,-2 11,-5zm-23 -66l-23 50 -7 -6 14 -30c2,-3 4,-7 5,-10 -2,2 -5,3 -9,5l-30 14 -7 -6 51 -23 6 6zm-69 18l-7 7 -6 -6 7 -7 6 6zm44 -43l-37 36 -6 -6 36 -37 7 7zm-32 4c-7,7 -14,10 -21,10 -6,-1 -11,-3 -16,-8 -5,-5 -7,-11 -7,-17 0,-7 3,-13 9,-18 5,-5 9,-8 13,-9 4,-2 9,-2 13,-1 4,2 8,4 11,7 5,5 7,11 7,18 0,6 -3,12 -9,18zm-7 -6c5,-5 8,-9 8,-14 0,-4 -1,-8 -4,-11 -3,-3 -7,-4 -12,-4 -4,0 -9,3 -13,8 -5,4 -7,9 -8,13 0,4 2,8 5,11 3,3 6,5 11,4 4,0 9,-2 13,-7zm-40 -78l-6 6c7,-1 13,0 18,5 2,2 4,5 5,8 1,2 1,5 1,7 0,2 -1,4 -3,6 -1,2 -3,4 -5,7l-23 22 -6 -6 20 -20c3,-4 5,-6 6,-7 2,-2 2,-4 2,-7 -1,-2 -2,-4 -4,-6 -1,-2 -4,-3 -6,-3 -3,-1 -5,-1 -8,0 -2,1 -5,3 -8,6l-19 20 -7 -7 37 -36 6 5zm-24 -2l-7 -5c2,-3 3,-5 3,-8 -1,-3 -2,-6 -5,-9 -3,-3 -6,-4 -8,-5 -3,0 -5,1 -6,2 -2,2 -2,4 -2,6 0,1 2,4 4,8 4,6 6,10 7,13 1,2 1,5 0,7 0,2 -1,5 -3,6 -2,2 -4,3 -6,4 -2,0 -4,0 -6,0 -2,0 -4,-1 -6,-2 -2,-1 -4,-3 -6,-5 -3,-3 -5,-6 -7,-9 -1,-3 -1,-5 -1,-8 0,-2 2,-5 4,-8l7 6c-2,2 -3,4 -3,7 1,2 2,4 4,7 3,3 6,4 8,4 2,1 4,0 5,-1 1,-1 1,-2 1,-3 1,-1 0,-2 0,-4 -1,-1 -2,-3 -4,-7 -3,-6 -5,-10 -6,-12 -1,-3 -2,-5 -1,-7 0,-3 1,-5 4,-7 2,-2 4,-4 7,-4 3,-1 6,-1 10,1 3,1 6,3 9,6 5,5 7,9 8,14 0,4 -1,9 -4,13zm253 84c4,0 8,1 11,2 3,2 6,3 8,6 4,4 6,8 6,12 1,4 -1,8 -4,11 -2,2 -4,3 -6,4 -2,0 -5,0 -7,0 -2,-1 -4,-1 -6,-3 -2,0 -4,-2 -7,-4 -5,-5 -10,-8 -13,-9 -1,1 -1,1 -2,1 -2,3 -3,5 -3,8 0,3 2,6 5,9 3,3 5,4 8,5 2,0 5,-1 8,-3l6 7c-4,2 -7,4 -10,4 -2,0 -5,0 -9,-2 -3,-2 -6,-4 -9,-7 -3,-3 -6,-6 -7,-9 -1,-3 -2,-5 -1,-7 0,-2 1,-4 2,-6 1,-1 3,-3 5,-6l9 -8c5,-6 9,-10 10,-12 1,-1 2,-3 3,-6l7 7c-1,2 -2,4 -4,6zm-13 14c3,1 7,4 12,8 3,2 6,3 7,4 2,1 3,1 4,0 2,0 3,-1 4,-2 2,-1 3,-3 3,-6 -1,-2 -2,-4 -4,-7 -3,-2 -5,-4 -8,-5 -3,0 -6,0 -9,1 -2,0 -4,2 -7,5l-2 2zm3 -34l-51 50 -6 -6 50 -50 7 6zm-22 -22l6 6 -51 51 -6 -7 18 -18c-6,1 -11,-1 -15,-5 -2,-2 -4,-5 -5,-8 -1,-3 -1,-6 -1,-8 0,-3 1,-6 3,-9 1,-3 4,-6 6,-9 6,-6 13,-10 19,-10 7,0 12,2 17,6 4,5 6,10 4,16l5 -5zm-19 19c5,-4 7,-8 8,-11 1,-6 0,-10 -3,-13 -3,-3 -6,-4 -10,-4 -5,1 -9,3 -14,8 -5,5 -7,9 -8,13 0,4 1,8 4,11 2,2 6,3 10,3 5,0 9,-3 13,-7zm-38 -76l-6 5c7,-1 13,0 18,5 2,3 4,5 5,8 1,2 1,5 1,7 -1,2 -1,4 -3,6 -1,2 -3,4 -5,7l-23 22 -6 -6 20 -20c3,-3 5,-6 6,-7 1,-2 2,-4 2,-6 -1,-3 -2,-5 -4,-7 -2,-1 -4,-3 -6,-3 -3,-1 -5,-1 -8,0 -2,1 -5,3 -8,6l-20 20 -6 -6 37 -37 6 6zm-16 -16l-36 37 -6 -6 5 -5c-3,1 -6,1 -9,0 -3,-1 -5,-3 -8,-5 -3,-3 -4,-6 -5,-9 0,-2 0,-5 1,-8 -7,1 -13,0 -18,-5 -3,-4 -5,-7 -5,-11 0,-4 2,-8 6,-13l26 -25 6 7 -23 23c-3,2 -4,4 -5,6 -1,1 -1,3 -1,4 1,2 2,4 3,5 3,3 6,4 9,4 4,0 7,-2 11,-6l21 -21 7 6 -24 24c-3,3 -5,5 -5,8 0,2 1,5 3,7 2,2 4,3 6,3 2,1 5,1 7,0 3,-2 6,-4 9,-7l19 -19 6 6z"/>
 </g>
 <g id="Слой_x0020_1_0">
  <metadata id="CorelCorpID_1Corel-Layer"/>
  <polygon class="fil2" points="121,377 335,436 355,413 169,328 89,137 67,160 "/>
 </g>
</svg>
